<mxfile host="app.diagrams.net" modified="2024-01-02T22:04:56.417Z" agent="Mozilla/5.0 (Windows NT 10.0; Win64; x64) AppleWebKit/537.36 (KHTML, like Gecko) Chrome/120.0.0.0 Safari/537.36" etag="B1AE83gI3RKIijl3bBcA" version="22.1.16" type="device">
  <diagram name="Page-1" id="nlCo7uOTXH8S5-hPUu7m">
    <mxGraphModel dx="2759" dy="1067" grid="1" gridSize="10" guides="1" tooltips="1" connect="1" arrows="1" fold="1" page="1" pageScale="1" pageWidth="850" pageHeight="1100" math="0" shadow="0">
      <root>
        <mxCell id="0" />
        <mxCell id="1" parent="0" />
        <mxCell id="1v_EZ-CLWt01RcDr0w3T-3" value="Database&lt;br&gt;Atlas MongoDB" style="verticalAlign=top;align=left;spacingTop=8;spacingLeft=2;spacingRight=12;shape=cube;size=10;direction=south;fontStyle=4;html=1;whiteSpace=wrap;fillColor=#72C9F7;" parent="1" vertex="1">
          <mxGeometry x="-60" y="630" width="160" height="130" as="geometry" />
        </mxCell>
        <mxCell id="1v_EZ-CLWt01RcDr0w3T-4" value="tcp/ip" style="text;html=1;align=center;verticalAlign=middle;resizable=0;points=[];autosize=1;strokeColor=none;fillColor=none;" parent="1" vertex="1">
          <mxGeometry x="375" y="650" width="50" height="30" as="geometry" />
        </mxCell>
        <mxCell id="y9guBKbFsz0AJxuNfq-v-2" value="" style="endArrow=none;html=1;rounded=0;exitX=0;exitY=0;exitDx=0;exitDy=75;exitPerimeter=0;entryX=0;entryY=0;entryDx=270;entryDy=245;entryPerimeter=0;" parent="1" source="1v_EZ-CLWt01RcDr0w3T-3" target="y9guBKbFsz0AJxuNfq-v-11" edge="1">
          <mxGeometry width="50" height="50" relative="1" as="geometry">
            <mxPoint x="229.5" y="595.5" as="sourcePoint" />
            <mxPoint x="410" y="470" as="targetPoint" />
          </mxGeometry>
        </mxCell>
        <mxCell id="y9guBKbFsz0AJxuNfq-v-8" value="tcp/ip" style="text;html=1;align=center;verticalAlign=middle;resizable=0;points=[];autosize=1;strokeColor=none;fillColor=none;" parent="1" vertex="1">
          <mxGeometry x="50" y="520" width="50" height="30" as="geometry" />
        </mxCell>
        <mxCell id="y9guBKbFsz0AJxuNfq-v-9" value="" style="endArrow=none;html=1;rounded=0;exitX=0;exitY=0;exitDx=270;exitDy=245;exitPerimeter=0;entryX=0;entryY=0;entryDx=0;entryDy=107.5;entryPerimeter=0;" parent="1" source="y9guBKbFsz0AJxuNfq-v-11" target="y9guBKbFsz0AJxuNfq-v-10" edge="1">
          <mxGeometry width="50" height="50" relative="1" as="geometry">
            <mxPoint x="337" y="595.5" as="sourcePoint" />
            <mxPoint x="480" y="610" as="targetPoint" />
          </mxGeometry>
        </mxCell>
        <mxCell id="y9guBKbFsz0AJxuNfq-v-10" value="10.9.11.58:8000&lt;br&gt;Windows VM DEI" style="verticalAlign=top;align=left;spacingTop=8;spacingLeft=2;spacingRight=12;shape=cube;size=10;direction=south;fontStyle=4;html=1;whiteSpace=wrap;fillColor=#72C9F7;" parent="1" vertex="1">
          <mxGeometry x="205" y="640" width="225" height="164.5" as="geometry" />
        </mxCell>
        <mxCell id="y9guBKbFsz0AJxuNfq-v-6" value="«component»&lt;br&gt;&lt;b&gt;Planeamento&lt;/b&gt;" style="html=1;dropTarget=0;whiteSpace=wrap;fillColor=#72C9F7;" parent="1" vertex="1">
          <mxGeometry x="231" y="700" width="160" height="80" as="geometry" />
        </mxCell>
        <mxCell id="y9guBKbFsz0AJxuNfq-v-7" value="" style="shape=module;jettyWidth=8;jettyHeight=4;fillColor=#72C9F7;" parent="y9guBKbFsz0AJxuNfq-v-6" vertex="1">
          <mxGeometry x="1" width="20" height="20" relative="1" as="geometry">
            <mxPoint x="-27" y="7" as="offset" />
          </mxGeometry>
        </mxCell>
        <mxCell id="y9guBKbFsz0AJxuNfq-v-11" value="localhost" style="verticalAlign=top;align=left;spacingTop=8;spacingLeft=2;spacingRight=12;shape=cube;size=10;direction=south;fontStyle=4;html=1;whiteSpace=wrap;fillColor=#72C9F7;" parent="1" vertex="1">
          <mxGeometry x="-50" y="190" width="480" height="270" as="geometry" />
        </mxCell>
        <mxCell id="1v_EZ-CLWt01RcDr0w3T-5" value="«component»&lt;br&gt;&lt;b&gt;SPA&lt;/b&gt;" style="html=1;dropTarget=0;whiteSpace=wrap;fillColor=#72C9F7;" parent="1" vertex="1">
          <mxGeometry y="230" width="160" height="80" as="geometry" />
        </mxCell>
        <mxCell id="1v_EZ-CLWt01RcDr0w3T-6" value="" style="shape=module;jettyWidth=8;jettyHeight=4;fillColor=#72C9F7;" parent="1v_EZ-CLWt01RcDr0w3T-5" vertex="1">
          <mxGeometry x="1" width="20" height="20" relative="1" as="geometry">
            <mxPoint x="-27" y="7" as="offset" />
          </mxGeometry>
        </mxCell>
        <mxCell id="zVLe0icVvGm8HM5O1UPa-1" value="Port 4200" style="text;html=1;align=center;verticalAlign=middle;resizable=0;points=[];autosize=1;strokeColor=none;fillColor=none;" parent="1" vertex="1">
          <mxGeometry x="-8" y="227" width="80" height="30" as="geometry" />
        </mxCell>
        <mxCell id="zVLe0icVvGm8HM5O1UPa-2" value="«component»&lt;br&gt;&lt;b&gt;Auth&lt;/b&gt;" style="html=1;dropTarget=0;whiteSpace=wrap;fillColor=#72C9F7;" parent="1" vertex="1">
          <mxGeometry x="231" y="230" width="160" height="80" as="geometry" />
        </mxCell>
        <mxCell id="zVLe0icVvGm8HM5O1UPa-3" value="" style="shape=module;jettyWidth=8;jettyHeight=4;fillColor=#72C9F7;" parent="zVLe0icVvGm8HM5O1UPa-2" vertex="1">
          <mxGeometry x="1" width="20" height="20" relative="1" as="geometry">
            <mxPoint x="-27" y="7" as="offset" />
          </mxGeometry>
        </mxCell>
        <mxCell id="zVLe0icVvGm8HM5O1UPa-4" value="Port 4500" style="text;html=1;align=center;verticalAlign=middle;resizable=0;points=[];autosize=1;strokeColor=none;fillColor=none;" parent="1" vertex="1">
          <mxGeometry x="221" y="228" width="80" height="30" as="geometry" />
        </mxCell>
        <mxCell id="zVLe0icVvGm8HM5O1UPa-5" value="«component»&lt;br&gt;&lt;b&gt;MDTarefas&lt;/b&gt;" style="html=1;dropTarget=0;whiteSpace=wrap;fillColor=#72C9F7;" parent="1" vertex="1">
          <mxGeometry x="231" y="340" width="160" height="80" as="geometry" />
        </mxCell>
        <mxCell id="zVLe0icVvGm8HM5O1UPa-6" value="" style="shape=module;jettyWidth=8;jettyHeight=4;fillColor=#72C9F7;" parent="zVLe0icVvGm8HM5O1UPa-5" vertex="1">
          <mxGeometry x="1" width="20" height="20" relative="1" as="geometry">
            <mxPoint x="-27" y="7" as="offset" />
          </mxGeometry>
        </mxCell>
        <mxCell id="-xqnAD-rzFhGNI5JszeZ-1" value="«component»&lt;br&gt;&lt;b&gt;MDRoboISEP&lt;/b&gt;" style="html=1;dropTarget=0;whiteSpace=wrap;fillColor=#72C9F7;" parent="1" vertex="1">
          <mxGeometry y="340" width="160" height="80" as="geometry" />
        </mxCell>
        <mxCell id="-xqnAD-rzFhGNI5JszeZ-2" value="" style="shape=module;jettyWidth=8;jettyHeight=4;fillColor=#72C9F7;" parent="-xqnAD-rzFhGNI5JszeZ-1" vertex="1">
          <mxGeometry x="1" width="20" height="20" relative="1" as="geometry">
            <mxPoint x="-27" y="7" as="offset" />
          </mxGeometry>
        </mxCell>
        <mxCell id="naXCrAjqUs4b8Jdf9ul7-1" value="Port 4000" style="text;strokeColor=none;align=center;fillColor=none;html=1;verticalAlign=middle;whiteSpace=wrap;rounded=0;" vertex="1" parent="1">
          <mxGeometry y="336" width="60" height="30" as="geometry" />
        </mxCell>
        <mxCell id="naXCrAjqUs4b8Jdf9ul7-2" value="Port 5261" style="text;strokeColor=none;align=center;fillColor=none;html=1;verticalAlign=middle;whiteSpace=wrap;rounded=0;" vertex="1" parent="1">
          <mxGeometry x="231" y="337" width="60" height="30" as="geometry" />
        </mxCell>
        <mxCell id="naXCrAjqUs4b8Jdf9ul7-3" value="Port 8000" style="text;html=1;align=center;verticalAlign=middle;resizable=0;points=[];autosize=1;strokeColor=none;fillColor=none;" vertex="1" parent="1">
          <mxGeometry x="221" y="695" width="80" height="30" as="geometry" />
        </mxCell>
        <mxCell id="naXCrAjqUs4b8Jdf9ul7-4" value="tcp/ip" style="text;html=1;align=center;verticalAlign=middle;resizable=0;points=[];autosize=1;strokeColor=none;fillColor=none;" vertex="1" parent="1">
          <mxGeometry x="260" y="520" width="50" height="30" as="geometry" />
        </mxCell>
      </root>
    </mxGraphModel>
  </diagram>
</mxfile>
